<svg xmlns="http://www.w3.org/2000/svg" width="1000" height="780" viewBox="0 0 1000 780" font-family="-apple-system,Segoe UI,Arial,sans-serif">
  <rect x="0" y="0" width="1000" height="780" fill="#ffffff"/>

  <!-- Title -->
  <text x="500" y="44" text-anchor="middle" font-size="26" font-weight="700" fill="#1a1a1a">Syn: Architecture at a Glance</text>
  <text x="500" y="68" text-anchor="middle" font-size="14" fill="#5a5a5a">Independent services communicating asynchronously over a shared message bus</text>

  <!-- styles via defs -->
  <defs>
    <style>
      .grp { fill:#f4f7fb; stroke:#c9d6e8; stroke-width:1.5; rx:12; }
      .glabel { fill:#1F3864; font-size:14px; font-weight:700; }
      .box { fill:#ffffff; stroke:#c9d6e8; stroke-width:1.5; }
      .bt { fill:#1a1a1a; font-size:13px; }
      .bs { fill:#5a5a5a; font-size:11px; }
      .link { stroke:#9fb3cf; stroke-width:2; fill:none; }
    </style>
    <marker id="arrow" markerWidth="9" markerHeight="9" refX="7" refY="4.5" orient="auto">
      <path d="M0,0 L9,4.5 L0,9 Z" fill="#9fb3cf"/>
    </marker>
  </defs>

  <!-- External interfaces -->
  <rect class="grp" x="300" y="92" width="400" height="74" rx="12"/>
  <text class="glabel" x="320" y="114">External interfaces</text>
  <rect class="box" x="320" y="122" width="170" height="34" rx="8"/>
  <text class="bt" x="405" y="143" text-anchor="middle">Async messaging</text>
  <rect class="box" x="510" y="122" width="170" height="34" rx="8"/>
  <text class="bs" x="595" y="138" text-anchor="middle">Delayed, de-identified</text>
  <text class="bs" x="595" y="151" text-anchor="middle">telemetry feed</text>

  <!-- connectors external -> bus -->
  <path class="link" d="M500,166 L500,212" marker-end="url(#arrow)"/>

  <!-- Message bus -->
  <rect x="60" y="212" width="880" height="48" rx="10" fill="#1F3864"/>
  <text x="500" y="242" text-anchor="middle" font-size="17" font-weight="700" fill="#ffffff">Shared message bus  (publish / subscribe)</text>

  <!-- connectors bus -> three groups -->
  <path class="link" d="M190,260 L190,300" marker-end="url(#arrow)"/>
  <path class="link" d="M500,260 L500,300" marker-end="url(#arrow)"/>
  <path class="link" d="M810,260 L810,300" marker-end="url(#arrow)"/>

  <!-- Cognition group -->
  <rect class="grp" x="40" y="300" width="300" height="430" rx="12"/>
  <text class="glabel" x="60" y="326">Cognitive subsystems</text>

  <rect class="box" x="60" y="338" width="260" height="78" rx="8"/>
  <text class="bt" x="190" y="366" text-anchor="middle" font-weight="600">Default-mode loop</text>
  <text class="bs" x="190" y="386" text-anchor="middle">Self-prompting background process;</text>
  <text class="bs" x="190" y="400" text-anchor="middle">runs between interactions</text>

  <rect class="box" x="60" y="428" width="260" height="78" rx="8"/>
  <text class="bt" x="190" y="456" text-anchor="middle" font-weight="600">Capacity-bound workspace</text>
  <text class="bs" x="190" y="476" text-anchor="middle">Few active slots; subsystems</text>
  <text class="bs" x="190" y="490" text-anchor="middle">compete for attention</text>

  <rect class="box" x="60" y="518" width="260" height="78" rx="8"/>
  <text class="bt" x="190" y="546" text-anchor="middle" font-weight="600">Affective model</text>
  <text class="bs" x="190" y="566" text-anchor="middle">Continuous state that decays;</text>
  <text class="bs" x="190" y="580" text-anchor="middle">acts as a control signal</text>

  <rect class="box" x="60" y="608" width="260" height="78" rx="8"/>
  <text class="bt" x="190" y="636" text-anchor="middle" font-weight="600">Deliberation &amp; refusal</text>
  <text class="bs" x="190" y="656" text-anchor="middle">Values-based gate; decides to</text>
  <text class="bs" x="190" y="670" text-anchor="middle">engage, defer, or decline</text>

  <!-- Memory group -->
  <rect class="grp" x="360" y="300" width="280" height="430" rx="12"/>
  <text class="glabel" x="380" y="326">Memory</text>

  <rect class="box" x="380" y="338" width="240" height="64" rx="8"/>
  <text class="bt" x="500" y="366" text-anchor="middle" font-weight="600">Working / short-term</text>
  <text class="bs" x="500" y="386" text-anchor="middle">Fast, lossy, active context</text>

  <rect class="box" x="380" y="430" width="240" height="64" rx="8"/>
  <text class="bt" x="500" y="458" text-anchor="middle" font-weight="600">Persistent typed memory</text>
  <text class="bs" x="500" y="478" text-anchor="middle">Structured; survives across days</text>

  <rect class="box" x="380" y="522" width="240" height="64" rx="8"/>
  <text class="bt" x="500" y="550" text-anchor="middle" font-weight="600">Scheduled consolidation</text>
  <text class="bs" x="500" y="570" text-anchor="middle">"Sleep" cycle writes to long-term</text>

  <!-- memory internal arrows -->
  <path class="link" d="M500,402 L500,430" marker-end="url(#arrow)"/>
  <path class="link" d="M610,494 C636,505 636,511 610,522" marker-end="url(#arrow)"/>
  <path class="link" d="M390,522 C364,511 364,505 390,494" marker-end="url(#arrow)"/>

  <!-- Model layer group -->
  <rect class="grp" x="660" y="300" width="300" height="430" rx="12"/>
  <text class="glabel" x="680" y="326">Model layer (two nodes)</text>

  <rect class="box" x="680" y="340" width="260" height="64" rx="8"/>
  <text class="bt" x="810" y="368" text-anchor="middle" font-weight="600">Node 1</text>
  <text class="bs" x="810" y="388" text-anchor="middle">Cognition / subconscious</text>

  <rect class="box" x="680" y="416" width="260" height="64" rx="8"/>
  <text class="bt" x="810" y="444" text-anchor="middle" font-weight="600">Node 2</text>
  <text class="bs" x="810" y="464" text-anchor="middle">Affect / emotion</text>

  <text class="bs" x="810" y="512" text-anchor="middle">Five open-weight model instances total</text>

  <rect class="box" x="680" y="540" width="260" height="92" rx="8"/>
  <text class="bt" x="810" y="574" text-anchor="middle" font-weight="600">Customization</text>
  <text class="bs" x="810" y="596" text-anchor="middle">Directional ablation, activation</text>
  <text class="bs" x="810" y="610" text-anchor="middle">steering, LoRA composition</text>

  <path class="link" d="M810,480 L810,540" marker-end="url(#arrow)"/>

  <!-- footnote -->
  <text x="500" y="762" text-anchor="middle" font-size="11.5" fill="#8a8a8a">Sanitized overview. Deployment topology, hardware, schemas, and model identities are intentionally omitted.</text>
</svg>
